<svg width="128" height="128" viewBox="0 0 128 128" xmlns="http://www.w3.org/2000/svg">
  <defs>
    <linearGradient id="breakGradient" x1="0%" y1="0%" x2="100%" y2="100%">
      <stop offset="0%" style="stop-color:#4facfe;stop-opacity:1" />
      <stop offset="100%" style="stop-color:#00f2fe;stop-opacity:1" />
    </linearGradient>
    <filter id="shadowBreak" x="-20%" y="-20%" width="140%" height="140%">
      <dropShadow dx="2" dy="4" stdDeviation="3" flood-color="#000000" flood-opacity="0.2"/>
    </filter>
  </defs>
  
  <!-- Background circle -->
  <circle cx="64" cy="64" r="58" fill="url(#breakGradient)" filter="url(#shadowBreak)"/>
  
  <!-- Coffee cup body -->
  <path d="M35 45 Q35 40 40 40 L75 40 Q80 40 80 45 L80 75 Q80 85 70 85 L45 85 Q35 85 35 75 Z" 
        fill="white" opacity="0.95"/>
  
  <!-- Coffee cup handle -->
  <path d="M80 50 Q90 50 90 60 Q90 70 80 70" 
        fill="none" stroke="white" stroke-width="4" stroke-linecap="round" opacity="0.9"/>
  
  <!-- Coffee surface -->
  <ellipse cx="57.5" cy="45" rx="20" ry="3" fill="rgba(79, 172, 254, 0.3)"/>
  
  <!-- Steam wisps -->
  <g stroke="white" stroke-width="2.5" stroke-linecap="round" opacity="0.7">
    <path d="M50 35 Q52 30 50 25 Q48 20 50 15" fill="none"/>
    <path d="M57.5 35 Q59.5 30 57.5 25 Q55.5 20 57.5 15" fill="none"/>
    <path d="M65 35 Q67 30 65 25 Q63 20 65 15" fill="none"/>
  </g>
  
  <!-- Relaxation waves -->
  <g stroke="rgba(255,255,255,0.4)" stroke-width="2" fill="none">
    <path d="M20 95 Q30 90 40 95 Q50 100 60 95 Q70 90 80 95 Q90 100 100 95"/>
    <path d="M25 105 Q35 100 45 105 Q55 110 65 105 Q75 100 85 105 Q95 110 105 105"/>
  </g>
  
  <!-- Highlight on cup -->
  <ellipse cx="45" cy="55" rx="4" ry="8" fill="rgba(255,255,255,0.4)" transform="rotate(-20 45 55)"/>
  
  <!-- Decorative dots -->
  <circle cx="50" cy="65" r="2" fill="rgba(79, 172, 254, 0.5)"/>
  <circle cx="65" cy="70" r="1.5" fill="rgba(79, 172, 254, 0.5)"/>
  <circle cx="55" cy="75" r="1" fill="rgba(79, 172, 254, 0.5)"/>
</svg> 