<svg width="128" height="128" viewBox="0 0 128 128" xmlns="http://www.w3.org/2000/svg">
  <defs>
    <linearGradient id="timerGradient" x1="0%" y1="0%" x2="100%" y2="100%">
      <stop offset="0%" style="stop-color:#667eea;stop-opacity:1" />
      <stop offset="100%" style="stop-color:#764ba2;stop-opacity:1" />
    </linearGradient>
    <filter id="shadowTimer" x="-20%" y="-20%" width="140%" height="140%">
      <dropShadow dx="2" dy="4" stdDeviation="3" flood-color="#000000" flood-opacity="0.2"/>
    </filter>
  </defs>
  
  <!-- Background circle -->
  <circle cx="64" cy="64" r="58" fill="url(#timerGradient)" filter="url(#shadowTimer)"/>
  
  <!-- Clock face -->
  <circle cx="64" cy="64" r="45" fill="white" opacity="0.95"/>
  
  <!-- Hour markers -->
  <g stroke="#667eea" stroke-width="3" stroke-linecap="round">
    <!-- 12, 3, 6, 9 o'clock - larger markers -->
    <line x1="64" y1="24" x2="64" y2="32" stroke-width="4"/>
    <line x1="100" y1="64" x2="92" y2="64" stroke-width="4"/>
    <line x1="64" y1="104" x2="64" y2="96" stroke-width="4"/>
    <line x1="28" y1="64" x2="36" y2="64" stroke-width="4"/>
    
    <!-- Other hour markers -->
    <line x1="86.4" y1="32.4" x2="81.8" y2="37" stroke-width="2"/>
    <line x1="95.6" y1="86.4" x2="91" y2="81.8" stroke-width="2"/>
    <line x1="41.6" y1="95.6" x2="46.2" y2="91" stroke-width="2"/>
    <line x1="32.4" y1="41.6" x2="37" y2="46.2" stroke-width="2"/>
  </g>
  
  <!-- Clock hands -->
  <!-- Hour hand pointing to 10 -->
  <line x1="64" y1="64" x2="52" y2="45" stroke="#667eea" stroke-width="5" stroke-linecap="round"/>
  
  <!-- Minute hand pointing to 2 -->
  <line x1="64" y1="64" x2="82" y2="40" stroke="#667eea" stroke-width="3.5" stroke-linecap="round"/>
  
  <!-- Center dot -->
  <circle cx="64" cy="64" r="5" fill="#667eea"/>
  <circle cx="64" cy="64" r="2" fill="white"/>
  
  <!-- Tomato symbol (small) -->
  <g transform="translate(75, 25) scale(0.3)">
    <ellipse cx="0" cy="5" rx="12" ry="15" fill="#ff6b6b"/>
    <path d="M-8 -8 Q-5 -12 0 -10 Q5 -12 8 -8" stroke="#4CAF50" stroke-width="2" fill="none"/>
    <ellipse cx="-3" cy="2" rx="1.5" ry="2" fill="rgba(255,255,255,0.4)"/>
  </g>
  
  <!-- Subtle highlight -->
  <ellipse cx="52" cy="48" rx="8" ry="12" fill="rgba(255,255,255,0.2)" transform="rotate(-30 52 48)"/>
</svg> 